# xmcd
#
# Track frame offsets:
# 150
# 16275
# 32700
# 45825
# 64650
# 85875
# 98550
# 104175
# 107700
# 114676
# 131251
# 144676
# 165451
# 173326
# 185251
# 204676
# 211051
# 215026
# 222302
# 231677
# 242402
# 255077
# 263402
# 279228
# 297603
# 304879
# 314254
# 324979
# 337654
#
# Disc length: 4612 seconds
#
# Revision: 0
# Processed by: cddbd v1.5.2PL0 Copyright (c) Steve Scherf et al.
# Submitted via: Audion 3.0.2 (http://www.panic.com/audion/)
#
DISCID=9812021d
DTITLE=LILI WAYNE - LIL WAYNE
DYEAR=1900
DGENRE=
TTITLE0=MISS MY DOGS
TTITLE1=IRON 
TTITLE2=FREESTYLE 3 
TTITLE3=MAD AT THE SOUTH
TTITLE4=LET EM
TTITLE5=MOMENT OF CLARITY
TTITLE6=3 KINGS
TTITLE7=CLEAR THE SCENE
TTITLE8=DOWN
TTITLE9=GO DJ
TTITLE10=FIREMAN
TTITLE11=ON EBLOOD 
TTITLE12=THE MOBB
TTITLE13=FREESTYLE 2
TTITLE14=YA AINT KNOW
TTITLE15=STAY STRAPPED
TTITLE16=FREEESTYLE 1
TTITLE17=WHERES MY CROWN
TTITLE18=BALLIN 
TTITLE19=LONG TIME COMING
TTITLE20=DOUGH IS WHAT I GOT
TTITLE21=FUNK MASTER FLEX 
TTITLE22=YEAH YEAH
TTITLE23=ARMY GUNS
TTITLE24=NA
TTITLE25=NA
TTITLE26=NA
TTITLE27=NA
TTITLE28=NA
EXTD=
EXTT0=
EXTT1=
EXTT2=
EXTT3=
EXTT4=
EXTT5=
EXTT6=
EXTT7=
EXTT8=
EXTT9=
EXTT10=
EXTT11=
EXTT12=
EXTT13=
EXTT14=
EXTT15=
EXTT16=
EXTT17=
EXTT18=
EXTT19=
EXTT20=
EXTT21=
EXTT22=
EXTT23=
EXTT24=
EXTT25=
EXTT26=
EXTT27=
EXTT28=
PLAYORDER=
